<svg xmlns="http://www.w3.org/2000/svg" viewBox="0 0 128 128" width="28" height="28">
  <path fill="#3776AB" d="M63.3 0C31.5 0 33.7 13.8 33.7 13.8h30.4v4.3H21.5S1 16.2 1 47.7v11.1c0 31.5 17.7 30.4 17.7 30.4h10.5v-15c0-17.7 15-18.8 15-18.8h30.4c16.6 0 17.7-16.6 17.7-16.6V15C92.3 1.7 63.3 0 63.3 0zM45.8 9.4c5.5 0 10 4.5 10 10s-4.5 10-10 10-10-4.5-10-10 4.5-10 10-10z"/>
  <path fill="#FFD43B" d="M64.7 128c31.8 0 29.6-13.8 29.6-13.8H63.9v-4.3h42.6s20.5 1.9 20.5-29.6V69.2c0-31.5-17.7-30.4-17.7-30.4H98.8v15c0 17.7-15 18.8-15 18.8H53.4c-16.6 0-17.7 16.6-17.7 16.6V113c0 13.3 29 15 29 15zm17.5-9.4c-5.5 0-10-4.5-10-10s4.5-10 10-10 10 4.5 10 10-4.5 10-10 10z"/>
</svg>
